P1
# Created by GIMP version 2.10.8 PNM plug-in
80 80
1111111111111111111111111111111111111111111111111111111111111111111111
1111111111111111111111111111111111111111111111111111111111111111111111
1111111111111111111111111111111111111111111111111111111111111111111111
1111111111111111111111111111111111111111111111111111111111111111111111
1111111111111111111111111111111111111111111111111111111111111111111111
1111111111111111111111111111111111111111111111111111111111111111111111
1111111111111111111111111111111111111111111111111111111111111111111111
1111111111111111111111111111111111111111111111111111111111111111111111
1111111111111111111111111111111111111111111111111111111111111111111111
1111111111111111111111111111111111111111111111111111111111111111111111
1111111111111111111111111111111111111111111111111111111111111111111111
1111111111111111111111111111111111111111111111111111111111111111111111
1111111111111111111111111111111111111111111111111111111111111111111111
1111111111110000000111111111111111111111111111111111111111111111111111
1111111111111111111000010000000111111111111111111111111111111111111111
1111111111111111111111111100000000010010000111111111111111111111111111
1111111111111111111111111111111111100010100000000001000111111111111111
1111111111111111111111111111111111111111111010000000100100100000000111
1111111111111111111111111111111111111111111111111110000000000000000000
0101000000011111111111111111111111111111111111111111111111000000000100
1001010100000001001000111111111111111111111111111111111111111111110000
1000100000000000000010000000001001111111111111111111111111111111111111
1111000000000000100001000001000001000000000000111111111111111111111111
1111111111110000100010000000010001000000100001000100000000111111111111
1111111111111111111000000001000001000000000010010000000000000010010000
1111111111111111111111111110000010000000100000100010000000001010010001
0000000000000111111111111111111111100001000000000000100000000000010000
0000001000000000010010001111111111111111110000000000100100100000010000
1001000010000000000100100100000001111111111111111100000010000000000000
0100000100000000000000101000000000000000100111111111111110001010000001
0001000010000010000000000100010000000001001000010100111111111111100100
0001000000000010000001000000100100000000000000100000001000001010111111
1111100001010001000100000001000001010100000010010001000000010000001010
0100111111111110100000000000001000000001000000000000000000000000100000
0100101011010111111111111000010100001000000100100000001000101000100010
0010000000001001010000011111111111110000001000000000000000001000000000
0000000000000000101010010101010100111111111111010000001000100100001000
0000010000100001000100010000000100101010000111111111111100101000000000
0001000010010000000001000000000000010101001000100010011111111111110000
0010010010000000000000000100000000010000010101010010010000100001111111
1111100000000000000010001000100010000100010000001000010000100001010000
0100111111111110001000100100100000000000100000000000000100001010010100
1000001010010101111111111100000000000000010001000000001000100100000100
1010100000000100000001000111111111100000000010010100010000000000000000
0001010010001000101010000101010010111111111110100010000000001000001010
0100010000100001001010010000000010000001000001111111111000000000000000
0010100000100000010000101001000010010010000010000001010011111111100000
0000000000000001001000010000101001010001000000000101000101010000001111
1111100000100000010000000010011010010000010100010001001010000000000000
0101001111111111100000010000000000000100000100101010101000000000000100
0101010010000000111111111000000000000001000100000101000101010010001010
0100100001000000010010010111111111100000000000000000000000000001000001
0001000000000001000000101000001000011111111110000000000100000000010001
0000010000100001001010000001001000001000001011111111110001000100000000
1000000000010000010000100000000010100000001000001010000111111111000000
0000000000000000000000000100010000101010010000100010001010000010111111
1111000000000000100000001000000000001000010000000000000001000000000010
1010111111111110000000000000000000000000001000001000010001001010010000
1010010001010111111111111010010010000000100000010000000000001000100000
0000000100001001010101011111111111100000000000010000000000000001000100
0000001010010100000100001010100111111111111111010000000000000001000010
0000000000100100000000000010001010100101111111111111111100101001000000
0000000000000000010000000010010010100010010101011111111111111111110000
0100010001000000000000010001001001001000000001001010010111111111111111
1111111101000100000000000000010000000000000000001010001011010101111111
1111111111111111111110010010010010010000010000001010100100000100100101
0111111111111111111111111111111100010010000000000000000010000000000101
0101010101111111111111111111111111111111111100000101000010000010000010
0010100010010101011111111111111111111111111111111111111101000010000000
0000000000100001001010101111111111111111111111111111111111111111111101
0000100000000000010000100101010101111111111111111111111111111111111111
1111111111010001001000000000010001010101011111111111111111111111111111
1111111111111111111111100100010010010000010010100111111111111111111111
1111111111111111111111111111111111000100000000010101010101111111111111
1111111111111111111111111111111111111111111111110010001000101010111111
1111111111111111111111111111111111111111111111111111111111010010001010
0111111111111111111111111111111111111111111111111111111111111111111111
0001010101111111111111111111111111111111111111111111111111111111111111
1111111111110000101111111111111111111111111111111111111111111111111111
1111111111111111111111111111111111111111111111111111111111111111111111
1111111111111111111111111111111111111111111111111111111111111111111111
1111111111111111111111111111111111111111111111111111111111111111111111
1111111111111111111111111111111111111111111111111111111111111111111111
1111111111111111111111111111111111111111111111111111111111111111111111
1111111111111111111111111111111111111111111111111111111111111111111111
1111111111111111111111111111111111111111111111111111111111111111111111
1111111111111111111111111111111111111111111111111111111111111111111111
1111111111111111111111111111111111111111111111111111111111111111111111
1111111111111111111111111111111111111111111111111111111111111111111111
1111111111111111111111111111111111111111111111111111111111111111111111
1111111111111111111111111111111111111111111111111111111111111111111111
111111111111111111111111111111